# xmcd
# 
# Track frame offsets:
#     150
#     17265
#     31587
#     49669
#     79725
#     97929
#     119414
#     137593
#     155947
#     174180
#     192175
#     217770
# 
# Disc length: 3328
# 
# Revision: 1
# Processed by: cddbd v1.5.2PL0 Copyright (c) Steve Scherf et al.
# Submitted via: fre:ac v1.0.31
# 
DISCID=880cfe0c
DTITLE=War - The Hits and More Disc 2
DYEAR=2011
DGENRE=R&Bl
TTITLE0=Why Can't We Be Friends?
TTITLE1=Low Rider
TTITLE2=Don't Let No One Get You Down
TTITLE3=Summer
TTITLE4=L.A. Sunshine
TTITLE5=Galaxy
TTITLE6=Youngblood (Livin' in the Streets)
TTITLE7=Sing a Happy Song
TTITLE8=You Got the Power
TTITLE9=Outlaw
TTITLE10=East L.A.
TTITLE11=War is Coming! War is Coming!
EXTD=
EXTT0=
EXTT1=
EXTT2=
EXTT3=
EXTT4=
EXTT5=
EXTT6=
EXTT7=
EXTT8=
EXTT9=
EXTT10=
EXTT11=
PLAYORDER=
